<mxfile host="65bd71144e">
    <diagram id="C5RBs43oDa-KdzZeNtuy" name="Page-1">
        <mxGraphModel dx="3922" dy="3375" grid="0" gridSize="10" guides="1" tooltips="1" connect="1" arrows="1" fold="1" page="0" pageScale="1" pageWidth="827" pageHeight="1169" math="0" shadow="0">
            <root>
                <mxCell id="WIyWlLk6GJQsqaUBKTNV-0"/>
                <mxCell id="WIyWlLk6GJQsqaUBKTNV-1" parent="WIyWlLk6GJQsqaUBKTNV-0"/>
                <mxCell id="Xsf8VFBO3j0tMAS3_5td-4" value="" style="endArrow=open;endSize=12;dashed=1;html=1;rounded=0;" parent="WIyWlLk6GJQsqaUBKTNV-1" source="560" target="35" edge="1">
                    <mxGeometry x="0.0045" y="105" width="160" relative="1" as="geometry">
                        <mxPoint x="727" y="520.876629889669" as="sourcePoint"/>
                        <mxPoint x="528" y="559" as="targetPoint"/>
                        <mxPoint as="offset"/>
                    </mxGeometry>
                </mxCell>
                <mxCell id="Xsf8VFBO3j0tMAS3_5td-5" value="" style="endArrow=open;endSize=12;dashed=1;html=1;rounded=0;" parent="WIyWlLk6GJQsqaUBKTNV-1" source="35" target="558" edge="1">
                    <mxGeometry x="0.0045" y="105" width="160" relative="1" as="geometry">
                        <mxPoint x="328" y="309" as="sourcePoint"/>
                        <mxPoint x="328" y="220.00000000000045" as="targetPoint"/>
                        <mxPoint as="offset"/>
                    </mxGeometry>
                </mxCell>
                <mxCell id="Xsf8VFBO3j0tMAS3_5td-7" value="" style="endArrow=open;endSize=12;dashed=1;html=1;rounded=0;" parent="WIyWlLk6GJQsqaUBKTNV-1" source="558" target="33" edge="1">
                    <mxGeometry x="0.0045" y="105" width="160" relative="1" as="geometry">
                        <mxPoint x="187.85401459854074" y="160.00000000000045" as="sourcePoint"/>
                        <mxPoint x="88.00000000000011" y="393" as="targetPoint"/>
                        <mxPoint as="offset"/>
                    </mxGeometry>
                </mxCell>
                <mxCell id="Xsf8VFBO3j0tMAS3_5td-29" value="" style="endArrow=open;endSize=12;dashed=1;html=1;rounded=0;" parent="WIyWlLk6GJQsqaUBKTNV-1" source="33" target="556" edge="1">
                    <mxGeometry x="0.0045" y="105" width="160" relative="1" as="geometry">
                        <mxPoint x="8" y="423" as="sourcePoint"/>
                        <mxPoint x="8" y="430.00000000000045" as="targetPoint"/>
                        <mxPoint as="offset"/>
                    </mxGeometry>
                </mxCell>
                <mxCell id="Xsf8VFBO3j0tMAS3_5td-31" value="" style="endArrow=open;endSize=12;dashed=1;html=1;rounded=0;" parent="WIyWlLk6GJQsqaUBKTNV-1" source="35" target="556" edge="1">
                    <mxGeometry x="0.0045" y="105" width="160" relative="1" as="geometry">
                        <mxPoint x="128" y="559" as="sourcePoint"/>
                        <mxPoint x="8" y="474" as="targetPoint"/>
                        <mxPoint as="offset"/>
                        <Array as="points">
                            <mxPoint x="8" y="369"/>
                        </Array>
                    </mxGeometry>
                </mxCell>
                <mxCell id="13" value="" style="endArrow=open;endSize=12;dashed=1;html=1;rounded=0;" parent="WIyWlLk6GJQsqaUBKTNV-1" source="563" target="561" edge="1">
                    <mxGeometry x="0.0045" y="105" width="160" relative="1" as="geometry">
                        <mxPoint x="1173" y="559" as="sourcePoint"/>
                        <mxPoint x="946" y="799" as="targetPoint"/>
                        <mxPoint as="offset"/>
                        <Array as="points">
                            <mxPoint x="1079" y="559"/>
                            <mxPoint x="1079" y="799"/>
                        </Array>
                    </mxGeometry>
                </mxCell>
                <mxCell id="14" value="" style="endArrow=open;endSize=12;dashed=1;html=1;rounded=0;" parent="WIyWlLk6GJQsqaUBKTNV-1" source="563" target="560" edge="1">
                    <mxGeometry x="0.0045" y="105" width="160" relative="1" as="geometry">
                        <mxPoint x="1173" y="559" as="sourcePoint"/>
                        <mxPoint x="926" y="559" as="targetPoint"/>
                        <mxPoint as="offset"/>
                    </mxGeometry>
                </mxCell>
                <mxCell id="30" value="" style="endArrow=block;dashed=1;endFill=0;endSize=12;html=1;" parent="WIyWlLk6GJQsqaUBKTNV-1" source="542" target="307" edge="1">
                    <mxGeometry width="160" relative="1" as="geometry">
                        <mxPoint x="2716.5" y="553" as="sourcePoint"/>
                        <mxPoint x="1943.5" y="729.5" as="targetPoint"/>
                    </mxGeometry>
                </mxCell>
                <mxCell id="31" value="" style="endArrow=block;dashed=1;endFill=0;endSize=12;html=1;" parent="WIyWlLk6GJQsqaUBKTNV-1" source="542" target="308" edge="1">
                    <mxGeometry width="160" relative="1" as="geometry">
                        <mxPoint x="2716.356540084388" y="519" as="sourcePoint"/>
                        <mxPoint x="1751.3511450381684" y="301.00000000000045" as="targetPoint"/>
                    </mxGeometry>
                </mxCell>
                <mxCell id="33" value="&lt;p style=&quot;margin: 0px ; margin-top: 4px ; text-align: center&quot;&gt;&lt;i&gt;&amp;lt;&amp;lt;Interface&amp;gt;&amp;gt;&lt;/i&gt;&lt;br&gt;&lt;b&gt;INotification&lt;/b&gt;&lt;/p&gt;&lt;hr size=&quot;1&quot;&gt;&lt;p style=&quot;margin: 0px ; margin-left: 4px&quot;&gt;&lt;/p&gt;&lt;p style=&quot;margin: 0px ; margin-left: 4px&quot;&gt;+ Notify(UserData, UserId): void&lt;/p&gt;" style="verticalAlign=top;align=left;overflow=fill;fontSize=12;fontFamily=Helvetica;html=1;" parent="WIyWlLk6GJQsqaUBKTNV-1" vertex="1">
                    <mxGeometry x="-81" y="89" width="178" height="65" as="geometry"/>
                </mxCell>
                <mxCell id="35" value="&lt;p style=&quot;margin: 0px ; margin-top: 4px ; text-align: center&quot;&gt;&lt;i&gt;&amp;lt;&amp;lt;Abstract&amp;gt;&amp;gt;&lt;/i&gt;&lt;/p&gt;&lt;p style=&quot;margin: 0px ; margin-top: 4px ; text-align: center&quot;&gt;&lt;b&gt;State&lt;/b&gt;&lt;/p&gt;&lt;hr size=&quot;1&quot;&gt;&lt;p style=&quot;margin: 0px ; margin-left: 4px&quot;&gt;&lt;/p&gt;&lt;p style=&quot;margin: 0px ; margin-left: 4px&quot;&gt;+ ProcessMessage(UserId, UserData, string): (State, string)&lt;/p&gt;&lt;br&gt;&lt;p style=&quot;margin: 0px 0px 0px 4px&quot;&gt;&lt;/p&gt;&lt;p style=&quot;margin: 0px 0px 0px 4px&quot;&gt;&lt;/p&gt;&lt;p style=&quot;margin: 0px 0px 0px 4px&quot;&gt;&lt;/p&gt;&lt;p style=&quot;margin: 0px 0px 0px 4px&quot;&gt;&lt;/p&gt;&lt;p style=&quot;margin: 0px 0px 0px 4px&quot;&gt;&lt;/p&gt;&lt;p style=&quot;margin: 0px 0px 0px 4px&quot;&gt;&lt;/p&gt;" style="verticalAlign=top;align=left;overflow=fill;fontSize=12;fontFamily=Helvetica;html=1;" parent="WIyWlLk6GJQsqaUBKTNV-1" vertex="1">
                    <mxGeometry x="162" y="333" width="332" height="70" as="geometry"/>
                </mxCell>
                <mxCell id="59" value="Extends" style="endArrow=block;endSize=16;endFill=0;html=1;rounded=0;" parent="WIyWlLk6GJQsqaUBKTNV-1" source="552" target="557" edge="1">
                    <mxGeometry width="160" relative="1" as="geometry">
                        <mxPoint x="-198" y="705" as="sourcePoint"/>
                        <mxPoint x="-53" y="799" as="targetPoint"/>
                        <Array as="points">
                            <mxPoint x="-122" y="705"/>
                            <mxPoint x="-122" y="799"/>
                        </Array>
                    </mxGeometry>
                </mxCell>
                <mxCell id="67" value="Extends" style="endArrow=block;endSize=16;endFill=0;html=1;rounded=0;" parent="WIyWlLk6GJQsqaUBKTNV-1" source="555" target="557" edge="1">
                    <mxGeometry width="160" relative="1" as="geometry">
                        <mxPoint x="-203" y="882" as="sourcePoint"/>
                        <mxPoint x="-53" y="799" as="targetPoint"/>
                        <Array as="points">
                            <mxPoint x="-121" y="882"/>
                            <mxPoint x="-121" y="799"/>
                        </Array>
                    </mxGeometry>
                </mxCell>
                <mxCell id="79" value="" style="endArrow=open;endSize=12;dashed=1;html=1;rounded=0;" parent="WIyWlLk6GJQsqaUBKTNV-1" source="33" target="311" edge="1">
                    <mxGeometry x="0.0045" y="105" width="160" relative="1" as="geometry">
                        <mxPoint x="18" y="309.5" as="sourcePoint"/>
                        <mxPoint x="946.5" y="267.00000000000045" as="targetPoint"/>
                        <mxPoint as="offset"/>
                    </mxGeometry>
                </mxCell>
                <mxCell id="102" value="" style="endArrow=open;endSize=12;dashed=1;html=1;rounded=0;" parent="WIyWlLk6GJQsqaUBKTNV-1" source="565" target="566" edge="1">
                    <mxGeometry x="0.0045" y="105" width="160" relative="1" as="geometry">
                        <mxPoint x="1272.5" y="988" as="sourcePoint"/>
                        <mxPoint x="1272.5" y="1087" as="targetPoint"/>
                        <mxPoint as="offset"/>
                    </mxGeometry>
                </mxCell>
                <mxCell id="103" value="" style="endArrow=open;endSize=12;dashed=1;html=1;rounded=0;" parent="WIyWlLk6GJQsqaUBKTNV-1" source="565" target="562" edge="1">
                    <mxGeometry x="0.0045" y="105" width="160" relative="1" as="geometry">
                        <mxPoint x="1079" y="932" as="sourcePoint"/>
                        <mxPoint x="1003" y="932" as="targetPoint"/>
                        <mxPoint as="offset"/>
                    </mxGeometry>
                </mxCell>
                <mxCell id="120" value="" style="endArrow=open;endSize=12;dashed=1;html=1;rounded=0;" parent="WIyWlLk6GJQsqaUBKTNV-1" source="523" target="396" edge="1">
                    <mxGeometry x="0.0045" y="105" width="160" relative="1" as="geometry">
                        <mxPoint x="-886.0000000000005" y="-1057.0000000000005" as="sourcePoint"/>
                        <mxPoint x="-792" y="-1018" as="targetPoint"/>
                        <mxPoint as="offset"/>
                    </mxGeometry>
                </mxCell>
                <mxCell id="126" value="Extends" style="endArrow=block;endSize=16;endFill=0;html=1;" parent="WIyWlLk6GJQsqaUBKTNV-1" source="531" target="530" edge="1">
                    <mxGeometry width="160" relative="1" as="geometry">
                        <mxPoint x="-1044.5" y="-728" as="sourcePoint"/>
                        <mxPoint x="-1044.5" y="-645" as="targetPoint"/>
                    </mxGeometry>
                </mxCell>
                <mxCell id="148" value="" style="endArrow=open;endSize=12;dashed=1;html=1;rounded=0;" parent="WIyWlLk6GJQsqaUBKTNV-1" source="544" target="539" edge="1">
                    <mxGeometry x="0.0045" y="105" width="160" relative="1" as="geometry">
                        <mxPoint x="-2250" y="-1181" as="sourcePoint"/>
                        <mxPoint x="-2394" y="-1179.623688155922" as="targetPoint"/>
                        <mxPoint as="offset"/>
                    </mxGeometry>
                </mxCell>
                <mxCell id="154" value="" style="endArrow=open;endSize=12;dashed=1;html=1;rounded=0;" parent="WIyWlLk6GJQsqaUBKTNV-1" source="544" target="546" edge="1">
                    <mxGeometry x="0.0045" y="105" width="160" relative="1" as="geometry">
                        <mxPoint x="-2079" y="-1180.4439024390244" as="sourcePoint"/>
                        <mxPoint x="-1942.5" y="-1181" as="targetPoint"/>
                        <mxPoint as="offset"/>
                    </mxGeometry>
                </mxCell>
                <mxCell id="159" value="" style="endArrow=open;endSize=12;dashed=1;html=1;rounded=0;" parent="WIyWlLk6GJQsqaUBKTNV-1" source="544" target="543" edge="1">
                    <mxGeometry x="0.0045" y="105" width="160" relative="1" as="geometry">
                        <mxPoint x="-2164.5" y="-1246" as="sourcePoint"/>
                        <mxPoint x="-2164.5" y="-1307.9999999999998" as="targetPoint"/>
                        <mxPoint as="offset"/>
                    </mxGeometry>
                </mxCell>
                <mxCell id="164" value="" style="endArrow=open;endSize=12;dashed=1;html=1;rounded=0;startArrow=none;" parent="WIyWlLk6GJQsqaUBKTNV-1" source="544" target="547" edge="1">
                    <mxGeometry x="0.0045" y="105" width="160" relative="1" as="geometry">
                        <mxPoint x="-2079" y="-1181" as="sourcePoint"/>
                        <mxPoint x="-1932" y="-1360" as="targetPoint"/>
                        <mxPoint as="offset"/>
                        <Array as="points">
                            <mxPoint x="-1999" y="-1181"/>
                            <mxPoint x="-1999" y="-1360"/>
                        </Array>
                    </mxGeometry>
                </mxCell>
                <mxCell id="170" value="" style="endArrow=open;endSize=12;dashed=1;html=1;rounded=0;" parent="WIyWlLk6GJQsqaUBKTNV-1" source="539" target="540" edge="1">
                    <mxGeometry x="0.0045" y="105" width="160" relative="1" as="geometry">
                        <mxPoint x="-2498" y="-1244" as="sourcePoint"/>
                        <mxPoint x="-2498" y="-1308" as="targetPoint"/>
                        <mxPoint as="offset"/>
                    </mxGeometry>
                </mxCell>
                <mxCell id="177" value="" style="endArrow=open;endSize=12;dashed=1;html=1;rounded=0;" parent="WIyWlLk6GJQsqaUBKTNV-1" source="540" target="541" edge="1">
                    <mxGeometry x="0.0045" y="105" width="160" relative="1" as="geometry">
                        <mxPoint x="-2498" y="-1412" as="sourcePoint"/>
                        <mxPoint x="-2498" y="-1468" as="targetPoint"/>
                        <mxPoint as="offset"/>
                    </mxGeometry>
                </mxCell>
                <mxCell id="178" value="" style="endArrow=open;endSize=12;dashed=1;html=1;rounded=0;" parent="WIyWlLk6GJQsqaUBKTNV-1" source="541" target="540" edge="1">
                    <mxGeometry x="0.0045" y="105" width="160" relative="1" as="geometry">
                        <mxPoint x="-2498" y="-1468" as="sourcePoint"/>
                        <mxPoint x="-2498" y="-1412" as="targetPoint"/>
                        <mxPoint as="offset"/>
                    </mxGeometry>
                </mxCell>
                <mxCell id="184" value="" style="endArrow=open;endSize=12;dashed=1;html=1;rounded=0;" parent="WIyWlLk6GJQsqaUBKTNV-1" source="539" target="537" edge="1">
                    <mxGeometry x="0.0045" y="105" width="160" relative="1" as="geometry">
                        <mxPoint x="-2602" y="-1179" as="sourcePoint"/>
                        <mxPoint x="-2768" y="-1179" as="targetPoint"/>
                        <mxPoint as="offset"/>
                    </mxGeometry>
                </mxCell>
                <mxCell id="192" value="" style="endArrow=open;endSize=12;dashed=1;html=1;rounded=0;" parent="WIyWlLk6GJQsqaUBKTNV-1" source="543" target="533" edge="1">
                    <mxGeometry x="0.0045" y="105" width="160" relative="1" as="geometry">
                        <mxPoint x="-2164.5" y="-1412" as="sourcePoint"/>
                        <mxPoint x="-2164.5" y="-1468" as="targetPoint"/>
                        <mxPoint as="offset"/>
                    </mxGeometry>
                </mxCell>
                <mxCell id="193" value="" style="endArrow=open;endSize=12;dashed=1;html=1;rounded=0;" parent="WIyWlLk6GJQsqaUBKTNV-1" source="543" target="541" edge="1">
                    <mxGeometry x="0.0045" y="105" width="160" relative="1" as="geometry">
                        <mxPoint x="-2250" y="-1359.9999999999998" as="sourcePoint"/>
                        <mxPoint x="-2405.5" y="-1533" as="targetPoint"/>
                        <mxPoint as="offset"/>
                        <Array as="points">
                            <mxPoint x="-2291" y="-1360"/>
                            <mxPoint x="-2291" y="-1526"/>
                        </Array>
                    </mxGeometry>
                </mxCell>
                <mxCell id="202" value="" style="endArrow=open;endSize=12;dashed=1;html=1;rounded=0;" parent="WIyWlLk6GJQsqaUBKTNV-1" source="532" edge="1">
                    <mxGeometry x="0.0045" y="105" width="160" relative="1" as="geometry">
                        <mxPoint x="-1628" y="-912.385334291876" as="sourcePoint"/>
                        <mxPoint x="-2164.3791821561335" y="-1116" as="targetPoint"/>
                        <mxPoint as="offset"/>
                        <Array as="points">
                            <mxPoint x="-2164" y="-912"/>
                        </Array>
                    </mxGeometry>
                </mxCell>
                <mxCell id="213" value="" style="endArrow=classic;html=1;jumpSize=6;strokeWidth=20;startArrow=none;startFill=0;" parent="WIyWlLk6GJQsqaUBKTNV-1" edge="1">
                    <mxGeometry width="50" height="50" relative="1" as="geometry">
                        <mxPoint x="-584" y="-457" as="sourcePoint"/>
                        <mxPoint x="-190" y="-52" as="targetPoint"/>
                    </mxGeometry>
                </mxCell>
                <mxCell id="218" value="Low-level interaction with the users" style="text;html=1;strokeColor=none;fillColor=none;align=center;verticalAlign=middle;whiteSpace=wrap;rounded=0;shadow=0;sketch=0;strokeWidth=1;fontSize=120;" parent="WIyWlLk6GJQsqaUBKTNV-1" vertex="1">
                    <mxGeometry x="75" y="-280" width="1211" height="317" as="geometry"/>
                </mxCell>
                <mxCell id="219" value="Company" style="text;html=1;strokeColor=none;fillColor=none;align=center;verticalAlign=middle;whiteSpace=wrap;rounded=0;shadow=0;sketch=0;strokeWidth=1;fontSize=120;" parent="WIyWlLk6GJQsqaUBKTNV-1" vertex="1">
                    <mxGeometry x="-1844" y="-2013" width="597" height="195" as="geometry"/>
                </mxCell>
                <mxCell id="224" value="" style="endArrow=open;endSize=12;dashed=1;html=1;rounded=0;" parent="WIyWlLk6GJQsqaUBKTNV-1" source="563" target="565" edge="1">
                    <mxGeometry x="0.0045" y="105" width="160" relative="1" as="geometry">
                        <mxPoint x="1272.5" y="589" as="sourcePoint"/>
                        <mxPoint x="1272.5" y="876" as="targetPoint"/>
                        <mxPoint as="offset"/>
                    </mxGeometry>
                </mxCell>
                <mxCell id="250" value="" style="endArrow=open;endSize=12;dashed=1;html=1;rounded=0;" parent="WIyWlLk6GJQsqaUBKTNV-1" source="539" target="538" edge="1">
                    <mxGeometry x="0.0045" y="105" width="160" relative="1" as="geometry">
                        <mxPoint x="-2498" y="-1114" as="sourcePoint"/>
                        <mxPoint x="-2498" y="-1038" as="targetPoint"/>
                        <mxPoint as="offset"/>
                    </mxGeometry>
                </mxCell>
                <mxCell id="257" value="" style="endArrow=block;dashed=1;endFill=0;endSize=12;html=1;fontSize=11;strokeWidth=1;rounded=0;" parent="WIyWlLk6GJQsqaUBKTNV-1" source="523" target="521" edge="1">
                    <mxGeometry width="160" relative="1" as="geometry">
                        <mxPoint x="-1203.0000000000005" y="-1057" as="sourcePoint"/>
                        <mxPoint x="-1309" y="-738" as="targetPoint"/>
                        <Array as="points">
                            <mxPoint x="-1236" y="-1057"/>
                            <mxPoint x="-1236" y="-738"/>
                        </Array>
                    </mxGeometry>
                </mxCell>
                <mxCell id="500" value="" style="endArrow=open;endSize=12;dashed=1;html=1;rounded=0;" parent="WIyWlLk6GJQsqaUBKTNV-1" source="559" target="557" edge="1">
                    <mxGeometry x="0.0045" y="105" width="160" relative="1" as="geometry">
                        <mxPoint x="750" y="248" as="sourcePoint"/>
                        <mxPoint x="133" y="799" as="targetPoint"/>
                        <mxPoint as="offset"/>
                        <Array as="points">
                            <mxPoint x="604" y="248"/>
                            <mxPoint x="604" y="799"/>
                        </Array>
                    </mxGeometry>
                </mxCell>
                <mxCell id="291" value="" style="endArrow=open;endSize=12;dashed=1;html=1;rounded=0;" parent="WIyWlLk6GJQsqaUBKTNV-1" source="307" target="309" edge="1">
                    <mxGeometry x="0.0045" y="105" width="160" relative="1" as="geometry">
                        <mxPoint x="2584" y="662" as="sourcePoint"/>
                        <mxPoint x="2020" y="692" as="targetPoint"/>
                        <mxPoint as="offset"/>
                    </mxGeometry>
                </mxCell>
                <mxCell id="302" value="Extends" style="endArrow=block;endSize=16;endFill=0;html=1;rounded=0;" parent="WIyWlLk6GJQsqaUBKTNV-1" source="569" target="542" edge="1">
                    <mxGeometry width="160" relative="1" as="geometry">
                        <mxPoint x="2914" y="368" as="sourcePoint"/>
                        <mxPoint x="2808" y="536" as="targetPoint"/>
                        <Array as="points">
                            <mxPoint x="2855" y="368"/>
                            <mxPoint x="2855" y="536"/>
                        </Array>
                    </mxGeometry>
                </mxCell>
                <mxCell id="306" value="Extends" style="endArrow=block;endSize=16;endFill=0;html=1;rounded=0;" parent="WIyWlLk6GJQsqaUBKTNV-1" source="536" target="542" edge="1">
                    <mxGeometry width="160" relative="1" as="geometry">
                        <mxPoint x="2909" y="666" as="sourcePoint"/>
                        <mxPoint x="2808" y="536" as="targetPoint"/>
                        <Array as="points">
                            <mxPoint x="2855" y="666"/>
                            <mxPoint x="2855" y="536"/>
                        </Array>
                    </mxGeometry>
                </mxCell>
                <mxCell id="307" value="&lt;p style=&quot;margin: 0px ; margin-top: 4px ; text-align: center&quot;&gt;&lt;i&gt;&amp;lt;&amp;lt;Interface&amp;gt;&amp;gt;&lt;/i&gt;&lt;br&gt;&lt;b&gt;IMessageReceiver&amp;lt;TId&amp;gt;&lt;/b&gt;&lt;/p&gt;&lt;hr size=&quot;1&quot;&gt;&lt;p style=&quot;margin: 0px ; margin-left: 4px&quot;&gt;&lt;/p&gt;&lt;p style=&quot;margin: 0px ; margin-left: 4px&quot;&gt;+ ToUserId(TId): UserId&lt;br&gt;&lt;/p&gt;&lt;p style=&quot;margin: 0px ; margin-left: 4px&quot;&gt;+ OnGetMessage(string, TId): void&lt;/p&gt;&lt;p style=&quot;margin: 0px ; margin-left: 4px&quot;&gt;+ OnGetMessage(Message): void&lt;/p&gt;" style="verticalAlign=top;align=left;overflow=fill;fontSize=12;fontFamily=Helvetica;html=1;" parent="WIyWlLk6GJQsqaUBKTNV-1" vertex="1">
                    <mxGeometry x="2618" y="723" width="197" height="92" as="geometry"/>
                </mxCell>
                <mxCell id="308" value="&lt;p style=&quot;margin: 0px ; margin-top: 4px ; text-align: center&quot;&gt;&lt;i&gt;&amp;lt;&amp;lt;Interface&amp;gt;&amp;gt;&lt;/i&gt;&lt;br&gt;&lt;b&gt;IMessageSender&amp;lt;TId&amp;gt;&lt;/b&gt;&lt;/p&gt;&lt;hr size=&quot;1&quot;&gt;&lt;p style=&quot;margin: 0px ; margin-left: 4px&quot;&gt;&lt;span&gt;+ SendMessage(string, TId): void&lt;/span&gt;&lt;br&gt;&lt;/p&gt;" style="verticalAlign=top;align=left;overflow=fill;fontSize=12;fontFamily=Helvetica;html=1;" parent="WIyWlLk6GJQsqaUBKTNV-1" vertex="1">
                    <mxGeometry x="2618" y="265.25" width="193" height="67.5" as="geometry"/>
                </mxCell>
                <mxCell id="309" value="&lt;p style=&quot;margin: 0px ; margin-top: 4px ; text-align: center&quot;&gt;&lt;i&gt;&amp;lt;&amp;lt;Interface&amp;gt;&amp;gt;&lt;/i&gt;&lt;br&gt;&lt;b&gt;IGenericReceiver&lt;/b&gt;&lt;/p&gt;&lt;hr size=&quot;1&quot;&gt;&lt;p style=&quot;margin: 0px ; margin-left: 4px&quot;&gt;&lt;/p&gt;&lt;p style=&quot;margin: 0px ; margin-left: 4px&quot;&gt;&lt;span&gt;+ OnGetMessage(Message): void&lt;/span&gt;&lt;br&gt;&lt;/p&gt;" style="verticalAlign=top;align=left;overflow=fill;fontSize=12;fontFamily=Helvetica;html=1;" parent="WIyWlLk6GJQsqaUBKTNV-1" vertex="1">
                    <mxGeometry x="1855" y="729.5" width="191" height="79" as="geometry"/>
                </mxCell>
                <mxCell id="311" value="&lt;p style=&quot;margin: 0px ; margin-top: 4px ; text-align: center&quot;&gt;&lt;i&gt;&amp;lt;&amp;lt;Interface&amp;gt;&amp;gt;&lt;/i&gt;&lt;br&gt;&lt;b&gt;IGenericSender&lt;/b&gt;&lt;/p&gt;&lt;hr size=&quot;1&quot;&gt;&lt;p style=&quot;margin: 0px ; margin-left: 4px&quot;&gt;&lt;/p&gt;&lt;p style=&quot;margin: 0px ; margin-left: 4px&quot;&gt;&lt;span&gt;+ SendMessage(Message): void&lt;/span&gt;&lt;br&gt;&lt;/p&gt;" style="verticalAlign=top;align=left;overflow=fill;fontSize=12;fontFamily=Helvetica;html=1;" parent="WIyWlLk6GJQsqaUBKTNV-1" vertex="1">
                    <mxGeometry x="1854" y="84.5" width="193" height="74" as="geometry"/>
                </mxCell>
                <mxCell id="313" value="" style="endArrow=open;endSize=12;dashed=1;html=1;rounded=0;" parent="WIyWlLk6GJQsqaUBKTNV-1" source="568" target="378" edge="1">
                    <mxGeometry x="0.0045" y="105" width="160" relative="1" as="geometry">
                        <mxPoint x="1950.5574324324325" y="542" as="sourcePoint"/>
                        <mxPoint x="2109" y="790.5" as="targetPoint"/>
                        <mxPoint as="offset"/>
                        <Array as="points">
                            <mxPoint x="1951" y="411"/>
                            <mxPoint x="2323" y="411"/>
                        </Array>
                    </mxGeometry>
                </mxCell>
                <mxCell id="334" value="" style="endArrow=open;endSize=12;dashed=1;html=1;rounded=0;" parent="WIyWlLk6GJQsqaUBKTNV-1" source="563" target="311" edge="1">
                    <mxGeometry x="0.0045" y="105" width="160" relative="1" as="geometry">
                        <mxPoint x="1318.9914285714285" y="529" as="sourcePoint"/>
                        <mxPoint x="1031" y="569.0000000000009" as="targetPoint"/>
                        <mxPoint as="offset"/>
                    </mxGeometry>
                </mxCell>
                <mxCell id="350" value="" style="endArrow=open;endSize=12;dashed=1;html=1;rounded=0;" parent="WIyWlLk6GJQsqaUBKTNV-1" source="561" target="557" edge="1">
                    <mxGeometry x="0.0045" y="105" width="160" relative="1" as="geometry">
                        <mxPoint x="707" y="799" as="sourcePoint"/>
                        <mxPoint x="133" y="799" as="targetPoint"/>
                        <mxPoint as="offset"/>
                    </mxGeometry>
                </mxCell>
                <mxCell id="352" value="" style="endArrow=open;endSize=12;dashed=1;html=1;rounded=0;" parent="WIyWlLk6GJQsqaUBKTNV-1" source="561" target="560" edge="1">
                    <mxGeometry x="0.0045" y="105" width="160" relative="1" as="geometry">
                        <mxPoint x="826.5" y="743" as="sourcePoint"/>
                        <mxPoint x="826.5" y="628" as="targetPoint"/>
                        <mxPoint as="offset"/>
                    </mxGeometry>
                </mxCell>
                <mxCell id="361" value="" style="endArrow=open;endSize=12;dashed=1;html=1;rounded=0;" parent="WIyWlLk6GJQsqaUBKTNV-1" source="563" target="559" edge="1">
                    <mxGeometry x="0.0045" y="105" width="160" relative="1" as="geometry">
                        <mxPoint x="1229.5465489566614" y="529" as="sourcePoint"/>
                        <mxPoint x="885.490353697749" y="287.00000000000045" as="targetPoint"/>
                        <mxPoint as="offset"/>
                    </mxGeometry>
                </mxCell>
                <mxCell id="366" value="" style="endArrow=open;endSize=12;dashed=1;html=1;rounded=0;" parent="WIyWlLk6GJQsqaUBKTNV-1" source="311" target="567" edge="1">
                    <mxGeometry x="0.0045" y="105" width="160" relative="1" as="geometry">
                        <mxPoint x="2434.5404040404037" y="331" as="sourcePoint"/>
                        <mxPoint x="1950.5" y="35" as="targetPoint"/>
                        <mxPoint as="offset"/>
                    </mxGeometry>
                </mxCell>
                <mxCell id="374" value="" style="endArrow=open;endSize=12;dashed=1;html=1;rounded=0;" parent="WIyWlLk6GJQsqaUBKTNV-1" source="378" target="308" edge="1">
                    <mxGeometry x="0.0045" y="105" width="160" relative="1" as="geometry">
                        <mxPoint x="2573.1774891774894" y="203" as="sourcePoint"/>
                        <mxPoint x="2546.334862385321" y="213" as="targetPoint"/>
                        <mxPoint as="offset"/>
                    </mxGeometry>
                </mxCell>
                <mxCell id="376" value="&lt;p style=&quot;margin: 0px ; margin-top: 4px ; text-align: center&quot;&gt;&lt;i&gt;&amp;lt;&amp;lt;Interface&amp;gt;&amp;gt;&lt;/i&gt;&lt;br&gt;&lt;b&gt;ISenderToSpecificUser&lt;/b&gt;&lt;/p&gt;&lt;hr size=&quot;1&quot;&gt;&lt;p style=&quot;margin: 0px ; margin-left: 4px&quot;&gt;&lt;span&gt;+ SendMessage(string): void&lt;/span&gt;&lt;br&gt;&lt;/p&gt;&lt;p style=&quot;margin: 0px ; margin-left: 4px&quot;&gt;&lt;br&gt;&lt;/p&gt;" style="verticalAlign=top;align=left;overflow=fill;fontSize=12;fontFamily=Helvetica;html=1;" parent="WIyWlLk6GJQsqaUBKTNV-1" vertex="1">
                    <mxGeometry x="-41" y="914" width="162" height="64" as="geometry"/>
                </mxCell>
                <mxCell id="377" value="" style="endArrow=block;dashed=1;endFill=0;endSize=12;html=1;" parent="WIyWlLk6GJQsqaUBKTNV-1" source="557" target="376" edge="1">
                    <mxGeometry width="160" relative="1" as="geometry">
                        <mxPoint x="40.000000000000455" y="829" as="sourcePoint"/>
                        <mxPoint x="-93" y="833" as="targetPoint"/>
                    </mxGeometry>
                </mxCell>
                <mxCell id="378" value="&lt;p style=&quot;margin: 0px ; margin-top: 4px ; text-align: center&quot;&gt;&lt;i&gt;&amp;lt;&amp;lt;Interface&amp;gt;&amp;gt;&lt;/i&gt;&lt;br&gt;&lt;b&gt;ISenderToSpecificUser&lt;/b&gt;&lt;/p&gt;" style="verticalAlign=top;align=left;overflow=fill;fontSize=12;fontFamily=Helvetica;html=1;" parent="WIyWlLk6GJQsqaUBKTNV-1" vertex="1">
                    <mxGeometry x="2242" y="280" width="162" height="38" as="geometry"/>
                </mxCell>
                <mxCell id="381" value="" style="endArrow=open;endSize=12;dashed=1;html=1;rounded=0;startArrow=none;" parent="WIyWlLk6GJQsqaUBKTNV-1" source="568" target="563" edge="1">
                    <mxGeometry width="160" relative="1" as="geometry">
                        <mxPoint x="1857" y="559" as="sourcePoint"/>
                        <mxPoint x="1372" y="559" as="targetPoint"/>
                    </mxGeometry>
                </mxCell>
                <mxCell id="386" value="" style="endArrow=block;dashed=1;endFill=0;endSize=12;html=1;" parent="WIyWlLk6GJQsqaUBKTNV-1" source="568" target="311" edge="1">
                    <mxGeometry width="160" relative="1" as="geometry">
                        <mxPoint x="1950.5" y="542" as="sourcePoint"/>
                        <mxPoint x="1851" y="413" as="targetPoint"/>
                    </mxGeometry>
                </mxCell>
                <mxCell id="387" value="" style="endArrow=block;dashed=1;endFill=0;endSize=12;html=1;" parent="WIyWlLk6GJQsqaUBKTNV-1" source="568" target="309" edge="1">
                    <mxGeometry width="160" relative="1" as="geometry">
                        <mxPoint x="1950.5" y="576" as="sourcePoint"/>
                        <mxPoint x="1960.5" y="346" as="targetPoint"/>
                    </mxGeometry>
                </mxCell>
                <mxCell id="394" value="" style="endArrow=open;endSize=12;dashed=1;html=1;rounded=0;startArrow=none;" parent="WIyWlLk6GJQsqaUBKTNV-1" source="556" target="551" edge="1">
                    <mxGeometry x="0.0045" y="105" width="160" relative="1" as="geometry">
                        <mxPoint x="-141" y="498.9978468208092" as="sourcePoint"/>
                        <mxPoint x="-287.00000000000045" y="499" as="targetPoint"/>
                        <mxPoint as="offset"/>
                    </mxGeometry>
                </mxCell>
                <mxCell id="396" value="&lt;p style=&quot;margin: 0px ; margin-top: 4px ; text-align: center&quot;&gt;&lt;i&gt;&amp;lt;&amp;lt;Interface&amp;gt;&amp;gt;&lt;/i&gt;&lt;br&gt;&lt;b&gt;IConsoleInfo&lt;/b&gt;&lt;/p&gt;" style="verticalAlign=top;align=left;overflow=fill;fontSize=12;fontFamily=Helvetica;html=1;" parent="WIyWlLk6GJQsqaUBKTNV-1" vertex="1">
                    <mxGeometry x="-792" y="-1077" width="98" height="40" as="geometry"/>
                </mxCell>
                <mxCell id="405" value="" style="endArrow=open;endSize=12;dashed=1;html=1;" parent="WIyWlLk6GJQsqaUBKTNV-1" source="526" target="523" edge="1">
                    <mxGeometry width="160" relative="1" as="geometry">
                        <mxPoint x="-721.7904290429037" y="-780" as="sourcePoint"/>
                        <mxPoint x="-968.7739273927396" y="-992.0000000000005" as="targetPoint"/>
                    </mxGeometry>
                </mxCell>
                <mxCell id="410" value="Extends" style="endArrow=block;endSize=16;endFill=0;html=1;" parent="WIyWlLk6GJQsqaUBKTNV-1" source="526" target="529" edge="1">
                    <mxGeometry width="160" relative="1" as="geometry">
                        <mxPoint x="-691.4999999999995" y="-728.0000000000005" as="sourcePoint"/>
                        <mxPoint x="-691.5" y="-645" as="targetPoint"/>
                    </mxGeometry>
                </mxCell>
                <mxCell id="415" value="&lt;p style=&quot;margin: 0px ; margin-top: 4px ; text-align: center&quot;&gt;&lt;i&gt;&amp;lt;&amp;lt;Interface&amp;gt;&amp;gt;&lt;/i&gt;&lt;br&gt;&lt;b&gt;IUserCreator&lt;/b&gt;&lt;/p&gt;" style="verticalAlign=top;align=left;overflow=fill;fontSize=12;fontFamily=Helvetica;html=1;" parent="WIyWlLk6GJQsqaUBKTNV-1" vertex="1">
                    <mxGeometry x="-471" y="-775" width="102" height="42" as="geometry"/>
                </mxCell>
                <mxCell id="416" value="" style="endArrow=open;endSize=12;dashed=1;html=1;" parent="WIyWlLk6GJQsqaUBKTNV-1" source="526" target="415" edge="1">
                    <mxGeometry width="160" relative="1" as="geometry">
                        <mxPoint x="-556" y="-754" as="sourcePoint"/>
                        <mxPoint x="-899" y="-744" as="targetPoint"/>
                    </mxGeometry>
                </mxCell>
                <mxCell id="422" value="" style="endArrow=open;endSize=12;dashed=1;html=1;rounded=0;" parent="WIyWlLk6GJQsqaUBKTNV-1" source="546" target="548" edge="1">
                    <mxGeometry x="0.0045" y="105" width="160" relative="1" as="geometry">
                        <mxPoint x="-1771.5" y="-1181" as="sourcePoint"/>
                        <mxPoint x="-1679.0000000000002" y="-1180.7129840546697" as="targetPoint"/>
                        <mxPoint as="offset"/>
                    </mxGeometry>
                </mxCell>
                <mxCell id="423" value="&lt;font style=&quot;font-size: 80px&quot;&gt;State of company representatives in the middle of being registered&lt;/font&gt;" style="text;html=1;strokeColor=none;fillColor=none;align=center;verticalAlign=middle;whiteSpace=wrap;rounded=0;shadow=0;sketch=0;strokeWidth=1;fontSize=120;" parent="WIyWlLk6GJQsqaUBKTNV-1" vertex="1">
                    <mxGeometry x="-562.5" y="-2766" width="1205" height="317" as="geometry"/>
                </mxCell>
                <mxCell id="432" value="&lt;p style=&quot;margin: 0px ; margin-top: 4px ; text-align: center&quot;&gt;&lt;b&gt;State&lt;/b&gt;&lt;/p&gt;&lt;p style=&quot;margin: 0px ; margin-left: 4px&quot;&gt;&lt;/p&gt;&lt;p style=&quot;margin: 0px ; margin-left: 4px&quot;&gt;&lt;/p&gt;&lt;p style=&quot;margin: 0px 0px 0px 4px&quot;&gt;&lt;/p&gt;&lt;p style=&quot;margin: 0px 0px 0px 4px&quot;&gt;&lt;/p&gt;&lt;p style=&quot;margin: 0px 0px 0px 4px&quot;&gt;&lt;/p&gt;&lt;p style=&quot;margin: 0px 0px 0px 4px&quot;&gt;&lt;/p&gt;&lt;p style=&quot;margin: 0px 0px 0px 4px&quot;&gt;&lt;/p&gt;&lt;p style=&quot;margin: 0px 0px 0px 4px&quot;&gt;&lt;/p&gt;" style="verticalAlign=top;align=left;overflow=fill;fontSize=12;fontFamily=Helvetica;html=1;" parent="WIyWlLk6GJQsqaUBKTNV-1" vertex="1">
                    <mxGeometry y="-2070" width="46" height="23" as="geometry"/>
                </mxCell>
                <mxCell id="454" value="" style="endArrow=open;endSize=12;dashed=1;html=1;" parent="WIyWlLk6GJQsqaUBKTNV-1" source="526" target="525" edge="1">
                    <mxGeometry width="160" relative="1" as="geometry">
                        <mxPoint x="-691.4999999999995" y="-780" as="sourcePoint"/>
                        <mxPoint x="-685" y="-907" as="targetPoint"/>
                    </mxGeometry>
                </mxCell>
                <mxCell id="466" value="" style="endArrow=open;endSize=12;dashed=1;html=1;" parent="WIyWlLk6GJQsqaUBKTNV-1" source="549" target="550" edge="1">
                    <mxGeometry width="160" relative="1" as="geometry">
                        <mxPoint x="158" y="-2279" as="sourcePoint"/>
                        <mxPoint x="247" y="-2279" as="targetPoint"/>
                    </mxGeometry>
                </mxCell>
                <mxCell id="467" value="" style="endArrow=classic;html=1;jumpSize=6;strokeWidth=20;startArrow=none;startFill=0;" parent="WIyWlLk6GJQsqaUBKTNV-1" edge="1">
                    <mxGeometry width="50" height="50" relative="1" as="geometry">
                        <mxPoint x="-186" y="-1956" as="sourcePoint"/>
                        <mxPoint x="-808" y="-1337" as="targetPoint"/>
                    </mxGeometry>
                </mxCell>
                <mxCell id="468" value="" style="endArrow=classic;html=1;jumpSize=6;strokeWidth=20;startArrow=none;startFill=0;" parent="WIyWlLk6GJQsqaUBKTNV-1" edge="1">
                    <mxGeometry width="50" height="50" relative="1" as="geometry">
                        <mxPoint x="322" y="-1863" as="sourcePoint"/>
                        <mxPoint x="490" y="-523" as="targetPoint"/>
                    </mxGeometry>
                </mxCell>
                <mxCell id="478" value="" style="endArrow=open;endSize=12;dashed=1;html=1;" parent="WIyWlLk6GJQsqaUBKTNV-1" source="524" target="535" edge="1">
                    <mxGeometry width="160" relative="1" as="geometry">
                        <mxPoint x="-2250" y="-738" as="sourcePoint"/>
                        <mxPoint x="-2373" y="-738" as="targetPoint"/>
                    </mxGeometry>
                </mxCell>
                <mxCell id="480" value="" style="endArrow=open;endSize=12;dashed=1;html=1;" parent="WIyWlLk6GJQsqaUBKTNV-1" source="521" target="524" edge="1">
                    <mxGeometry width="160" relative="1" as="geometry">
                        <mxPoint x="-1628" y="-738" as="sourcePoint"/>
                        <mxPoint x="-2079" y="-738" as="targetPoint"/>
                        <Array as="points"/>
                    </mxGeometry>
                </mxCell>
                <mxCell id="482" value="" style="endArrow=block;dashed=1;endFill=0;endSize=12;html=1;fontSize=11;strokeWidth=1;rounded=0;" parent="WIyWlLk6GJQsqaUBKTNV-1" source="523" target="532" edge="1">
                    <mxGeometry width="160" relative="1" as="geometry">
                        <mxPoint x="-1203.0000000000005" y="-1057" as="sourcePoint"/>
                        <mxPoint x="-1309" y="-914.2150537634407" as="targetPoint"/>
                        <Array as="points">
                            <mxPoint x="-1236" y="-1057"/>
                            <mxPoint x="-1236" y="-915"/>
                        </Array>
                    </mxGeometry>
                </mxCell>
                <mxCell id="490" value="" style="endArrow=open;endSize=12;dashed=1;html=1;rounded=0;" parent="WIyWlLk6GJQsqaUBKTNV-1" source="521" target="534" edge="1">
                    <mxGeometry width="160" relative="1" as="geometry">
                        <mxPoint x="-1628" y="-738" as="sourcePoint"/>
                        <mxPoint x="-2047.5" y="-558" as="targetPoint"/>
                        <Array as="points">
                            <mxPoint x="-1852" y="-738"/>
                            <mxPoint x="-1852" y="-561"/>
                        </Array>
                    </mxGeometry>
                </mxCell>
                <mxCell id="491" value="" style="endArrow=open;endSize=12;dashed=1;html=1;" parent="WIyWlLk6GJQsqaUBKTNV-1" target="524" edge="1">
                    <mxGeometry width="160" relative="1" as="geometry">
                        <mxPoint x="-2164.5" y="-584" as="sourcePoint"/>
                        <mxPoint x="-2164.5" y="-660" as="targetPoint"/>
                        <Array as="points"/>
                    </mxGeometry>
                </mxCell>
                <mxCell id="519" value="&lt;p style=&quot;margin: 0px ; margin-top: 4px ; text-align: center&quot;&gt;&lt;i&gt;&amp;lt;&amp;lt;Static&amp;gt;&amp;gt;&lt;/i&gt;&lt;/p&gt;&lt;p style=&quot;margin: 0px ; margin-top: 4px ; text-align: center&quot;&gt;&lt;b&gt;CompanyManager&lt;/b&gt;&lt;/p&gt;&lt;hr size=&quot;1&quot;&gt;&lt;p style=&quot;margin: 0px ; margin-left: 4px&quot;&gt;&lt;u&gt;- companies: List&amp;lt;Company&amp;gt;&lt;/u&gt;&lt;/p&gt;&lt;hr size=&quot;1&quot;&gt;&lt;p style=&quot;margin: 0px ; margin-left: 4px&quot;&gt;&lt;u&gt;+ GetCompanyOf(UserId): Company?&lt;/u&gt;&lt;/p&gt;" style="verticalAlign=top;align=left;overflow=fill;fontSize=12;fontFamily=Helvetica;html=1;" parent="WIyWlLk6GJQsqaUBKTNV-1" vertex="1">
                    <mxGeometry x="-1150" y="-930" width="211" height="98" as="geometry"/>
                </mxCell>
                <mxCell id="520" value="" style="endArrow=open;endSize=12;dashed=1;html=1;rounded=0;" parent="WIyWlLk6GJQsqaUBKTNV-1" source="519" target="523" edge="1">
                    <mxGeometry x="0.0045" y="105" width="160" relative="1" as="geometry">
                        <mxPoint x="-876" y="-1047" as="sourcePoint"/>
                        <mxPoint x="-1044.5000000000005" y="-992.0000000000005" as="targetPoint"/>
                        <mxPoint as="offset"/>
                    </mxGeometry>
                </mxCell>
                <mxCell id="521" value="&lt;p style=&quot;margin: 0px ; margin-top: 4px ; text-align: center&quot;&gt;&lt;i&gt;&amp;lt;&amp;lt;Interface&amp;gt;&amp;gt;&lt;/i&gt;&lt;br&gt;&lt;b&gt;ISentMaterialReportCreator&lt;/b&gt;&lt;/p&gt;&lt;hr size=&quot;1&quot;&gt;&lt;p style=&quot;margin: 0px ; margin-left: 4px&quot;&gt;materialSales: List&amp;lt;SentMaterialLine&amp;gt;&lt;br&gt;&lt;/p&gt;&lt;hr size=&quot;1&quot;&gt;&lt;p style=&quot;margin: 0px ; margin-left: 4px&quot;&gt;+ GetMaterialReport(DateTime): SentMaterialReport&lt;/p&gt;" style="verticalAlign=top;align=left;overflow=fill;fontSize=12;fontFamily=Helvetica;html=1;" parent="WIyWlLk6GJQsqaUBKTNV-1" vertex="1">
                    <mxGeometry x="-1606" y="-789" width="295" height="102" as="geometry"/>
                </mxCell>
                <mxCell id="523" value="&lt;p style=&quot;margin: 0px ; margin-top: 4px ; text-align: center&quot;&gt;&lt;b&gt;Company&lt;/b&gt;&lt;/p&gt;&lt;hr size=&quot;1&quot;&gt;&lt;p style=&quot;margin: 0px ; margin-left: 4px&quot;&gt;+ Name: string&lt;/p&gt;&lt;p style=&quot;margin: 0px ; margin-left: 4px&quot;&gt;+ ContactInfo: ContactInfo&lt;/p&gt;&lt;p style=&quot;margin: 0px ; margin-left: 4px&quot;&gt;+ Heading: string&lt;/p&gt;&lt;p style=&quot;margin: 0px ; margin-left: 4px&quot;&gt;- representants: List&amp;lt;UserId&amp;gt;&lt;br&gt;&lt;/p&gt;&lt;hr size=&quot;1&quot;&gt;&lt;p style=&quot;margin: 0px ; margin-left: 4px&quot;&gt;+ HasUser(User): bool&lt;/p&gt;" style="verticalAlign=top;align=left;overflow=fill;fontSize=12;fontFamily=Helvetica;html=1;" parent="WIyWlLk6GJQsqaUBKTNV-1" vertex="1">
                    <mxGeometry x="-1131" y="-1118" width="173" height="122" as="geometry"/>
                </mxCell>
                <mxCell id="524" value="&lt;p style=&quot;margin: 0px ; margin-top: 4px ; text-align: center&quot;&gt;&lt;b&gt;SentMaterialLine&lt;/b&gt;&lt;/p&gt;&lt;hr size=&quot;1&quot;&gt;&lt;p style=&quot;margin: 0px ; margin-left: 4px&quot;&gt;+ Material: Material&lt;br&gt;&lt;/p&gt;&lt;p style=&quot;margin: 0px ; margin-left: 4px&quot;&gt;+ Amount: Amount&lt;/p&gt;&lt;p style=&quot;margin: 0px ; margin-left: 4px&quot;&gt;+ Price: Price&lt;/p&gt;&lt;p style=&quot;margin: 0px ; margin-left: 4px&quot;&gt;+ DateTime: DateTime&lt;/p&gt;&lt;p style=&quot;margin: 0px ; margin-left: 4px&quot;&gt;+ Income: MoneyQuantity&lt;/p&gt;&lt;hr size=&quot;1&quot;&gt;&lt;p style=&quot;margin: 0px ; margin-left: 4px&quot;&gt;&lt;br&gt;&lt;/p&gt;" style="verticalAlign=top;align=left;overflow=fill;fontSize=12;fontFamily=Helvetica;html=1;" parent="WIyWlLk6GJQsqaUBKTNV-1" vertex="1">
                    <mxGeometry x="-2242" y="-796" width="155" height="116" as="geometry"/>
                </mxCell>
                <mxCell id="525" value="&lt;p style=&quot;margin: 0px ; margin-top: 4px ; text-align: center&quot;&gt;&lt;b&gt;IncompleteCompanyRepresentativeState&lt;/b&gt;&lt;/p&gt;" style="verticalAlign=top;align=left;overflow=fill;fontSize=12;fontFamily=Helvetica;html=1;" parent="WIyWlLk6GJQsqaUBKTNV-1" vertex="1">
                    <mxGeometry x="-818" y="-922" width="253" height="26" as="geometry"/>
                </mxCell>
                <mxCell id="526" value="&lt;p style=&quot;margin: 0px ; margin-top: 4px ; text-align: center&quot;&gt;&lt;b&gt;CompanyInvitation&lt;/b&gt;&lt;/p&gt;&lt;hr size=&quot;1&quot;&gt;&lt;p style=&quot;margin: 0px ; margin-left: 4px&quot;&gt;+ Company: Company&lt;br&gt;&lt;/p&gt;&lt;hr size=&quot;1&quot;&gt;&lt;p style=&quot;margin: 0px ; margin-left: 4px&quot;&gt;&lt;br&gt;&lt;/p&gt;" style="verticalAlign=top;align=left;overflow=fill;fontSize=12;fontFamily=Helvetica;html=1;" parent="WIyWlLk6GJQsqaUBKTNV-1" vertex="1">
                    <mxGeometry x="-839" y="-783" width="295" height="58" as="geometry"/>
                </mxCell>
                <mxCell id="529" value="&lt;p style=&quot;margin: 0px ; margin-top: 4px ; text-align: center&quot;&gt;&lt;b&gt;Invitation&lt;/b&gt;&lt;/p&gt;" style="verticalAlign=top;align=left;overflow=fill;fontSize=12;fontFamily=Helvetica;html=1;" parent="WIyWlLk6GJQsqaUBKTNV-1" vertex="1">
                    <mxGeometry x="-726.5" y="-641" width="70" height="26" as="geometry"/>
                </mxCell>
                <mxCell id="530" value="&lt;p style=&quot;margin: 0px ; margin-top: 4px ; text-align: center&quot;&gt;&lt;b&gt;UserData&lt;/b&gt;&lt;/p&gt;" style="verticalAlign=top;align=left;overflow=fill;fontSize=12;fontFamily=Helvetica;html=1;" parent="WIyWlLk6GJQsqaUBKTNV-1" vertex="1">
                    <mxGeometry x="-1079.5" y="-638" width="70" height="26" as="geometry"/>
                </mxCell>
                <mxCell id="531" value="&lt;p style=&quot;margin: 0px ; margin-top: 4px ; text-align: center&quot;&gt;&lt;b&gt;CompanyRepresentative&lt;/b&gt;&lt;/p&gt;&lt;hr size=&quot;1&quot;&gt;&lt;p style=&quot;margin: 0px ; margin-left: 4px&quot;&gt;+ Company: Company&lt;br&gt;&lt;/p&gt;&lt;hr size=&quot;1&quot;&gt;&lt;p style=&quot;margin: 0px ; margin-left: 4px&quot;&gt;&lt;br&gt;&lt;/p&gt;" style="verticalAlign=top;align=left;overflow=fill;fontSize=12;fontFamily=Helvetica;html=1;" parent="WIyWlLk6GJQsqaUBKTNV-1" vertex="1">
                    <mxGeometry x="-1192" y="-782" width="295" height="57" as="geometry"/>
                </mxCell>
                <mxCell id="532" value="&lt;p style=&quot;margin: 0px ; margin-top: 4px ; text-align: center&quot;&gt;&lt;i&gt;&amp;lt;&amp;lt;Interface&amp;gt;&amp;gt;&lt;/i&gt;&lt;br&gt;&lt;b&gt;IPublisher&lt;/b&gt;&lt;/p&gt;&lt;hr size=&quot;1&quot;&gt;&lt;p style=&quot;margin: 0px ; margin-left: 4px&quot;&gt;&lt;span&gt;publications: List&amp;lt;MaterialPublication&amp;gt;&lt;/span&gt;&lt;/p&gt;&lt;p style=&quot;margin: 0px ; margin-left: 4px&quot;&gt;&lt;span&gt;+ Publications: ReadOnlyList&amp;lt;MaterialPublication&amp;gt;&lt;/span&gt;&lt;br&gt;&lt;/p&gt;&lt;hr size=&quot;1&quot;&gt;&lt;p style=&quot;margin: 0px ; margin-left: 4px&quot;&gt;+ PublishMaterial(Material, Amount, Price, Location): bool&lt;/p&gt;&lt;p style=&quot;margin: 0px ; margin-left: 4px&quot;&gt;+ RemovePublication(int): bool&lt;/p&gt;" style="verticalAlign=top;align=left;overflow=fill;fontSize=12;fontFamily=Helvetica;html=1;" parent="WIyWlLk6GJQsqaUBKTNV-1" vertex="1">
                    <mxGeometry x="-1622" y="-974" width="317" height="122" as="geometry"/>
                </mxCell>
                <mxCell id="533" value="&lt;p style=&quot;margin: 0px ; margin-top: 4px ; text-align: center&quot;&gt;&lt;b&gt;Currency&lt;/b&gt;&lt;/p&gt;&lt;hr size=&quot;1&quot;&gt;&lt;p style=&quot;margin: 0px ; margin-left: 4px&quot;&gt;+ Name: string&lt;br&gt;&lt;/p&gt;&lt;p style=&quot;margin: 0px ; margin-left: 4px&quot;&gt;+ Symbol: string&lt;/p&gt;&lt;p style=&quot;margin: 0px ; margin-left: 4px&quot;&gt;&lt;u&gt;+ Peso: Currency&lt;/u&gt;&lt;/p&gt;&lt;p style=&quot;margin: 0px ; margin-left: 4px&quot;&gt;&lt;u&gt;+ Dollar: Currency&lt;/u&gt;&lt;/p&gt;&lt;hr size=&quot;1&quot;&gt;&lt;p style=&quot;margin: 0px ; margin-left: 4px&quot;&gt;&lt;br&gt;&lt;/p&gt;" style="verticalAlign=top;align=left;overflow=fill;fontSize=12;fontFamily=Helvetica;html=1;" parent="WIyWlLk6GJQsqaUBKTNV-1" vertex="1">
                    <mxGeometry x="-2221" y="-1577" width="113" height="102" as="geometry"/>
                </mxCell>
                <mxCell id="534" value="&lt;p style=&quot;margin: 0px ; margin-top: 4px ; text-align: center&quot;&gt;&lt;b&gt;SentMaterialReport&lt;/b&gt;&lt;/p&gt;&lt;hr size=&quot;1&quot;&gt;&lt;p style=&quot;margin: 0px ; margin-left: 4px&quot;&gt;+ Lines: ReadOnlyList&amp;lt;SentMaterialLine&amp;gt;&lt;/p&gt;&lt;hr size=&quot;1&quot;&gt;&lt;p style=&quot;margin: 0px ; margin-left: 4px&quot;&gt;&lt;br&gt;&lt;/p&gt;" style="verticalAlign=top;align=left;overflow=fill;fontSize=12;fontFamily=Helvetica;html=1;" parent="WIyWlLk6GJQsqaUBKTNV-1" vertex="1">
                    <mxGeometry x="-2282" y="-591" width="235" height="61" as="geometry"/>
                </mxCell>
                <mxCell id="535" value="&lt;p style=&quot;margin: 0px ; margin-top: 4px ; text-align: center&quot;&gt;&lt;b&gt;MoneyQuantity&lt;/b&gt;&lt;/p&gt;&lt;hr size=&quot;1&quot;&gt;&lt;p style=&quot;margin: 0px ; margin-left: 4px&quot;&gt;+ Quantity: float&lt;br&gt;&lt;/p&gt;&lt;p style=&quot;margin: 0px ; margin-left: 4px&quot;&gt;+ Currency: Currency&lt;br&gt;&lt;/p&gt;&lt;hr size=&quot;1&quot;&gt;&lt;p style=&quot;margin: 0px ; margin-left: 4px&quot;&gt;&lt;br&gt;&lt;/p&gt;" style="verticalAlign=top;align=left;overflow=fill;fontSize=12;fontFamily=Helvetica;html=1;" parent="WIyWlLk6GJQsqaUBKTNV-1" vertex="1">
                    <mxGeometry x="-2759" y="-776" width="251" height="76" as="geometry"/>
                </mxCell>
                <mxCell id="536" value="&lt;p style=&quot;margin: 0px ; margin-top: 4px ; text-align: center&quot;&gt;&lt;b&gt;WhatsAppPlatform...&lt;/b&gt;&lt;/p&gt;" style="verticalAlign=middle;align=center;overflow=fill;fontSize=12;fontFamily=Helvetica;html=1;labelPosition=center;verticalLabelPosition=middle;" parent="WIyWlLk6GJQsqaUBKTNV-1" vertex="1">
                    <mxGeometry x="2922" y="654" width="131" height="24" as="geometry"/>
                </mxCell>
                <mxCell id="537" value="&lt;p style=&quot;margin: 0px ; margin-top: 4px ; text-align: center&quot;&gt;&lt;b&gt;Requirement...&lt;/b&gt;&lt;/p&gt;" style="verticalAlign=top;align=left;overflow=fill;fontSize=12;fontFamily=Helvetica;html=1;" parent="WIyWlLk6GJQsqaUBKTNV-1" vertex="1">
                    <mxGeometry x="-2886" y="-1194" width="124" height="26" as="geometry"/>
                </mxCell>
                <mxCell id="538" value="&lt;p style=&quot;margin: 0px ; margin-top: 4px ; text-align: center&quot;&gt;&lt;b&gt;MaterialCategory&lt;/b&gt;&lt;/p&gt;&lt;hr size=&quot;1&quot;&gt;&lt;p style=&quot;margin: 0px ; margin-left: 4px&quot;&gt;+ Name: string&lt;br&gt;&lt;/p&gt;&lt;p style=&quot;margin: 0px ; margin-left: 4px&quot;&gt;- materials: List&amp;lt;Material&amp;gt;&lt;/p&gt;&lt;p style=&quot;margin: 0px ; margin-left: 4px&quot;&gt;+ Materials: ReadOnlyList&amp;lt;Material&amp;gt;&lt;/p&gt;&lt;p style=&quot;margin: 0px ; margin-left: 4px&quot;&gt;&lt;u&gt;+ Categories: ReadOnlyList&amp;lt;MaterialCategory&amp;gt;&lt;/u&gt;&lt;/p&gt;&lt;hr size=&quot;1&quot;&gt;&lt;p style=&quot;margin: 0px ; margin-left: 4px&quot;&gt;&lt;br&gt;&lt;/p&gt;" style="verticalAlign=top;align=left;overflow=fill;fontSize=12;fontFamily=Helvetica;html=1;" parent="WIyWlLk6GJQsqaUBKTNV-1" vertex="1">
                    <mxGeometry x="-2645.5" y="-1035" width="295" height="101" as="geometry"/>
                </mxCell>
                <mxCell id="539" value="&lt;p style=&quot;margin: 0px ; margin-top: 4px ; text-align: center&quot;&gt;&lt;b&gt;Material&lt;/b&gt;&lt;/p&gt;&lt;hr size=&quot;1&quot;&gt;&lt;p style=&quot;margin: 0px ; margin-left: 4px&quot;&gt;+ Name: string&lt;br&gt;&lt;/p&gt;&lt;p style=&quot;margin: 0px ; margin-left: 4px&quot;&gt;+ Measure: Measure&lt;/p&gt;&lt;p style=&quot;margin: 0px ; margin-left: 4px&quot;&gt;- requirements: List&amp;lt;Requirement&amp;gt;&lt;/p&gt;&lt;p style=&quot;margin: 0px ; margin-left: 4px&quot;&gt;+ Requirements: ReadOnlyList&amp;lt;Requirement&amp;gt;&lt;/p&gt;&lt;p style=&quot;margin: 0px ; margin-left: 4px&quot;&gt;+ Category: MaterialCategory&lt;/p&gt;&lt;hr size=&quot;1&quot;&gt;&lt;p style=&quot;margin: 0px ; margin-left: 4px&quot;&gt;&lt;br&gt;&lt;/p&gt;" style="verticalAlign=top;align=left;overflow=fill;fontSize=12;fontFamily=Helvetica;html=1;" parent="WIyWlLk6GJQsqaUBKTNV-1" vertex="1">
                    <mxGeometry x="-2626" y="-1240.5" width="256" height="119" as="geometry"/>
                </mxCell>
                <mxCell id="540" value="&lt;p style=&quot;margin: 0px ; margin-top: 4px ; text-align: center&quot;&gt;&lt;b&gt;Measure&lt;/b&gt;&lt;/p&gt;&lt;hr size=&quot;1&quot;&gt;&lt;p style=&quot;margin: 0px ; margin-left: 4px&quot;&gt;+ Name: string&lt;br&gt;&lt;/p&gt;&lt;p style=&quot;margin: 0px ; margin-left: 4px&quot;&gt;+ Unit: Unit[ ]&lt;/p&gt;&lt;p style=&quot;margin: 0px ; margin-left: 4px&quot;&gt;&lt;u&gt;+ Length: Measure&lt;/u&gt;&lt;/p&gt;&lt;p style=&quot;margin: 0px ; margin-left: 4px&quot;&gt;&lt;u&gt;+ Weight: Measure&lt;/u&gt;&lt;/p&gt;&lt;p style=&quot;margin: 0px ; margin-left: 4px&quot;&gt;&lt;u&gt;+ Volume: Measure&lt;/u&gt;&lt;/p&gt;&lt;hr size=&quot;1&quot;&gt;&lt;p style=&quot;margin: 0px ; margin-left: 4px&quot;&gt;&lt;br&gt;&lt;/p&gt;" style="verticalAlign=top;align=left;overflow=fill;fontSize=12;fontFamily=Helvetica;html=1;" parent="WIyWlLk6GJQsqaUBKTNV-1" vertex="1">
                    <mxGeometry x="-2562" y="-1405.5" width="128" height="115.5" as="geometry"/>
                </mxCell>
                <mxCell id="541" value="&lt;p style=&quot;margin: 0px ; margin-top: 4px ; text-align: center&quot;&gt;&lt;b&gt;Unit&lt;/b&gt;&lt;/p&gt;&lt;hr size=&quot;1&quot;&gt;&lt;p style=&quot;margin: 0px ; margin-left: 4px&quot;&gt;+ Name: string&lt;br&gt;&lt;/p&gt;&lt;p style=&quot;margin: 0px ; margin-left: 4px&quot;&gt;+ Abbreviation: string&lt;/p&gt;&lt;p style=&quot;margin: 0px ; margin-left: 4px&quot;&gt;&lt;span&gt;+ Measure: Measure&lt;/span&gt;&lt;br&gt;&lt;/p&gt;&lt;p style=&quot;margin: 0px 0px 0px 4px&quot;&gt;- weight: double&lt;/p&gt;&lt;p style=&quot;margin: 0px ; margin-left: 4px&quot;&gt;&lt;u&gt;values: List&amp;lt;Unit&amp;gt;&lt;/u&gt;&lt;br&gt;&lt;/p&gt;&lt;hr size=&quot;1&quot;&gt;&lt;p style=&quot;margin: 0px ; margin-left: 4px&quot;&gt;&lt;u&gt;+ GetByAbbr(string): Unit?&lt;/u&gt;&lt;/p&gt;&lt;p style=&quot;margin: 0px ; margin-left: 4px&quot;&gt;&lt;u&gt;+ GetConversionFactor(Unit, Unit): double?&lt;/u&gt;&lt;/p&gt;" style="verticalAlign=top;align=left;overflow=fill;fontSize=12;fontFamily=Helvetica;html=1;" parent="WIyWlLk6GJQsqaUBKTNV-1" vertex="1">
                    <mxGeometry x="-2620" y="-1604" width="244" height="156" as="geometry"/>
                </mxCell>
                <mxCell id="542" value="&lt;p style=&quot;margin: 0px ; margin-top: 4px ; text-align: center&quot;&gt;&lt;i&gt;&amp;lt;&amp;lt;Abstract&amp;gt;&amp;gt;&lt;/i&gt;&lt;br&gt;&lt;b&gt;MessagingPlatform&amp;lt;TId&amp;gt;&lt;/b&gt;&lt;/p&gt;&lt;hr size=&quot;1&quot;&gt;&lt;p style=&quot;margin: 0px ; margin-left: 4px&quot;&gt;&lt;br&gt;&lt;/p&gt;&lt;hr size=&quot;1&quot;&gt;&lt;p style=&quot;margin: 0px ; margin-left: 4px&quot;&gt;&lt;br&gt;&lt;/p&gt;" style="verticalAlign=top;align=left;overflow=fill;fontSize=12;fontFamily=Helvetica;html=1;" parent="WIyWlLk6GJQsqaUBKTNV-1" vertex="1">
                    <mxGeometry x="2631.5" y="499" width="166" height="73.01" as="geometry"/>
                </mxCell>
                <mxCell id="543" value="&lt;p style=&quot;margin: 0px ; margin-top: 4px ; text-align: center&quot;&gt;&lt;b&gt;Price&lt;/b&gt;&lt;/p&gt;&lt;hr size=&quot;1&quot;&gt;&lt;p style=&quot;margin: 0px ; margin-left: 4px&quot;&gt;+ Quantity: float&lt;br&gt;&lt;/p&gt;&lt;p style=&quot;margin: 0px ; margin-left: 4px&quot;&gt;+ Currency: Currency&lt;/p&gt;&lt;p style=&quot;margin: 0px ; margin-left: 4px&quot;&gt;+ Unit: Unit&lt;/p&gt;&lt;hr size=&quot;1&quot;&gt;&lt;p style=&quot;margin: 0px ; margin-left: 4px&quot;&gt;&lt;br&gt;&lt;/p&gt;" style="verticalAlign=top;align=left;overflow=fill;fontSize=12;fontFamily=Helvetica;html=1;" parent="WIyWlLk6GJQsqaUBKTNV-1" vertex="1">
                    <mxGeometry x="-2227.5" y="-1404.5" width="126" height="89" as="geometry"/>
                </mxCell>
                <mxCell id="544" value="&lt;p style=&quot;margin: 0px ; margin-top: 4px ; text-align: center&quot;&gt;&lt;b&gt;MaterialPublication&lt;/b&gt;&lt;/p&gt;&lt;hr size=&quot;1&quot;&gt;&lt;p style=&quot;margin: 0px ; margin-left: 4px&quot;&gt;+ Material: Material&lt;br&gt;&lt;/p&gt;&lt;p style=&quot;margin: 0px ; margin-left: 4px&quot;&gt;+ Stock: Amount&lt;/p&gt;&lt;p style=&quot;margin: 0px ; margin-left: 4px&quot;&gt;+ Price: Price&lt;/p&gt;&lt;p style=&quot;margin: 0px ; margin-left: 4px&quot;&gt;+ PickupLocation: Location&lt;/p&gt;&lt;hr size=&quot;1&quot;&gt;&lt;p style=&quot;margin: 0px ; margin-left: 4px&quot;&gt;&lt;br&gt;&lt;/p&gt;" style="verticalAlign=top;align=left;overflow=fill;fontSize=12;fontFamily=Helvetica;html=1;" parent="WIyWlLk6GJQsqaUBKTNV-1" vertex="1">
                    <mxGeometry x="-2241" y="-1232" width="153" height="102" as="geometry"/>
                </mxCell>
                <mxCell id="546" value="&lt;p style=&quot;margin: 0px ; margin-top: 4px ; text-align: center&quot;&gt;&lt;b&gt;Amount&lt;/b&gt;&lt;/p&gt;&lt;hr size=&quot;1&quot;&gt;&lt;p style=&quot;margin: 0px ; margin-left: 4px&quot;&gt;+ Quantity: float&lt;br&gt;&lt;/p&gt;&lt;p style=&quot;margin: 0px ; margin-left: 4px&quot;&gt;+ Unit: Unit&lt;/p&gt;&lt;hr size=&quot;1&quot;&gt;&lt;p style=&quot;margin: 0px ; margin-left: 4px&quot;&gt;&lt;br&gt;&lt;/p&gt;" style="verticalAlign=top;align=left;overflow=fill;fontSize=12;fontFamily=Helvetica;html=1;" parent="WIyWlLk6GJQsqaUBKTNV-1" vertex="1">
                    <mxGeometry x="-1920" y="-1218" width="106" height="78" as="geometry"/>
                </mxCell>
                <mxCell id="547" value="&lt;p style=&quot;margin: 0px ; margin-top: 4px ; text-align: center&quot;&gt;&lt;b&gt;Location...&lt;/b&gt;&lt;/p&gt;" style="verticalAlign=top;align=left;overflow=fill;fontSize=12;fontFamily=Helvetica;html=1;" parent="WIyWlLk6GJQsqaUBKTNV-1" vertex="1">
                    <mxGeometry x="-1916" y="-1373" width="82" height="26" as="geometry"/>
                </mxCell>
                <mxCell id="548" value="&lt;p style=&quot;margin: 0px ; margin-top: 4px ; text-align: center&quot;&gt;&lt;b&gt;Unit&lt;/b&gt;&lt;/p&gt;" style="verticalAlign=top;align=left;overflow=fill;fontSize=12;fontFamily=Helvetica;html=1;" parent="WIyWlLk6GJQsqaUBKTNV-1" vertex="1">
                    <mxGeometry x="-1667" y="-1192" width="56" height="26" as="geometry"/>
                </mxCell>
                <mxCell id="549" value="&lt;p style=&quot;margin: 0px ; margin-top: 4px ; text-align: center&quot;&gt;&lt;b&gt;IncompleteCompanyRepresentativeState&lt;/b&gt;&lt;/p&gt;&lt;hr size=&quot;1&quot;&gt;&lt;p style=&quot;margin: 0px ; margin-left: 4px&quot;&gt;- step: ubyte&lt;br&gt;&lt;/p&gt;&lt;p style=&quot;margin: 0px ; margin-left: 4px&quot;&gt;- name: string&lt;/p&gt;&lt;p style=&quot;margin: 0px ; margin-left: 4px&quot;&gt;- title: string&lt;/p&gt;&lt;p style=&quot;margin: 0px ; margin-left: 4px&quot;&gt;- location: Location&lt;/p&gt;&lt;p style=&quot;margin: 0px ; margin-left: 4px&quot;&gt;- phoneNumber: int&lt;/p&gt;&lt;p style=&quot;margin: 0px ; margin-left: 4px&quot;&gt;- email: string&lt;/p&gt;&lt;hr size=&quot;1&quot;&gt;&lt;p style=&quot;margin: 0px ; margin-left: 4px&quot;&gt;&lt;br&gt;&lt;/p&gt;" style="verticalAlign=top;align=left;overflow=fill;fontSize=12;fontFamily=Helvetica;html=1;" parent="WIyWlLk6GJQsqaUBKTNV-1" vertex="1">
                    <mxGeometry x="-108" y="-2345.5" width="262" height="133" as="geometry"/>
                </mxCell>
                <mxCell id="550" value="&lt;p style=&quot;margin: 0px ; margin-top: 4px ; text-align: center&quot;&gt;&lt;b&gt;CompanyRepresentative&lt;/b&gt;&lt;/p&gt;" style="verticalAlign=top;align=left;overflow=fill;fontSize=12;fontFamily=Helvetica;html=1;" parent="WIyWlLk6GJQsqaUBKTNV-1" vertex="1">
                    <mxGeometry x="258" y="-2292" width="156" height="26" as="geometry"/>
                </mxCell>
                <mxCell id="551" value="&lt;p style=&quot;margin: 0px ; margin-top: 4px ; text-align: center&quot;&gt;&lt;b&gt;ContactInfo&lt;/b&gt;&lt;/p&gt;&lt;hr size=&quot;1&quot;&gt;&lt;p style=&quot;margin: 0px ; margin-left: 4px&quot;&gt;+ Email: string&lt;br&gt;&lt;/p&gt;&lt;p style=&quot;margin: 0px ; margin-left: 4px&quot;&gt;+ PhoneNumber: int&lt;/p&gt;&lt;hr size=&quot;1&quot;&gt;&lt;p style=&quot;margin: 0px ; margin-left: 4px&quot;&gt;&lt;br&gt;&lt;/p&gt;" style="verticalAlign=top;align=left;overflow=fill;fontSize=12;fontFamily=Helvetica;html=1;" parent="WIyWlLk6GJQsqaUBKTNV-1" vertex="1">
                    <mxGeometry x="-404" y="461.37" width="132" height="75.25" as="geometry"/>
                </mxCell>
                <mxCell id="552" value="&lt;p style=&quot;margin: 0px ; margin-top: 4px ; text-align: center&quot;&gt;&lt;b&gt;WhatsAppId...&lt;/b&gt;&lt;/p&gt;" style="verticalAlign=middle;align=center;overflow=fill;fontSize=12;fontFamily=Helvetica;html=1;labelPosition=center;verticalLabelPosition=middle;" parent="WIyWlLk6GJQsqaUBKTNV-1" vertex="1">
                    <mxGeometry x="-309.5" y="693" width="103" height="24" as="geometry"/>
                </mxCell>
                <mxCell id="555" value="&lt;p style=&quot;margin: 0px ; margin-top: 4px ; text-align: center&quot;&gt;&lt;b&gt;TelegramId&lt;/b&gt;&lt;/p&gt;&lt;hr size=&quot;1&quot;&gt;&lt;p style=&quot;margin: 0px ; margin-left: 4px&quot;&gt;- telegramId: long&lt;br&gt;&lt;/p&gt;&lt;hr size=&quot;1&quot;&gt;&lt;p style=&quot;margin: 0px ; margin-left: 4px&quot;&gt;&lt;br&gt;&lt;/p&gt;" style="verticalAlign=top;align=left;overflow=fill;fontSize=12;fontFamily=Helvetica;html=1;" parent="WIyWlLk6GJQsqaUBKTNV-1" vertex="1">
                    <mxGeometry x="-338.5" y="851" width="132" height="62" as="geometry"/>
                </mxCell>
                <mxCell id="556" value="&lt;p style=&quot;margin: 0px ; margin-top: 4px ; text-align: center&quot;&gt;&lt;b&gt;UserData&lt;/b&gt;&lt;/p&gt;&lt;hr size=&quot;1&quot;&gt;&lt;p style=&quot;margin: 0px ; margin-left: 4px&quot;&gt;+ Name: string&lt;br&gt;&lt;/p&gt;&lt;p style=&quot;margin: 0px ; margin-left: 4px&quot;&gt;+ ContactInfo: ContactInfo&lt;/p&gt;&lt;hr size=&quot;1&quot;&gt;&lt;p style=&quot;margin: 0px ; margin-left: 4px&quot;&gt;+ SendMessage(string): void&lt;/p&gt;&lt;p style=&quot;margin: 0px ; margin-left: 4px&quot;&gt;+ ReceiveMessage(string, NotificationManager): void&lt;/p&gt;" style="verticalAlign=top;align=left;overflow=fill;fontSize=12;fontFamily=Helvetica;html=1;" parent="WIyWlLk6GJQsqaUBKTNV-1" vertex="1">
                    <mxGeometry x="-138.5" y="445.99" width="293" height="106" as="geometry"/>
                </mxCell>
                <mxCell id="557" value="&lt;p style=&quot;margin: 0px ; margin-top: 4px ; text-align: center&quot;&gt;&lt;i&gt;&amp;lt;&amp;lt;Abstract&amp;gt;&amp;gt;&lt;/i&gt;&lt;/p&gt;&lt;p style=&quot;margin: 0px ; margin-top: 4px ; text-align: center&quot;&gt;&lt;b&gt;UserId&lt;/b&gt;&lt;/p&gt;&lt;hr size=&quot;1&quot;&gt;&lt;p style=&quot;margin: 0px ; margin-left: 4px&quot;&gt;&lt;br&gt;&lt;/p&gt;&lt;hr size=&quot;1&quot;&gt;&lt;p style=&quot;margin: 0px ; margin-left: 4px&quot;&gt;+ Equals(UserId): bool&lt;/p&gt;" style="verticalAlign=top;align=left;overflow=fill;fontSize=12;fontFamily=Helvetica;html=1;" parent="WIyWlLk6GJQsqaUBKTNV-1" vertex="1">
                    <mxGeometry x="-26" y="748" width="132" height="102" as="geometry"/>
                </mxCell>
                <mxCell id="558" value="&lt;p style=&quot;margin: 0px ; margin-top: 4px ; text-align: center&quot;&gt;&lt;i&gt;&amp;lt;&amp;lt;Static&amp;gt;&amp;gt;&lt;/i&gt;&lt;br&gt;&lt;b&gt;NotificationManager&lt;/b&gt;&lt;/p&gt;&lt;hr size=&quot;1&quot;&gt;&lt;p style=&quot;margin: 0px ; margin-left: 4px&quot;&gt;&lt;br&gt;&lt;/p&gt;&lt;hr size=&quot;1&quot;&gt;&lt;p style=&quot;margin: 0px ; margin-left: 4px&quot;&gt;+ SendNotification(UserId, UserData, Func&amp;lt;INotification&amp;gt;): void&lt;/p&gt;" style="verticalAlign=top;align=left;overflow=fill;fontSize=12;fontFamily=Helvetica;html=1;" parent="WIyWlLk6GJQsqaUBKTNV-1" vertex="1">
                    <mxGeometry x="155.5" y="166" width="345" height="102" as="geometry"/>
                </mxCell>
                <mxCell id="559" value="&lt;p style=&quot;margin: 0px ; margin-top: 4px ; text-align: center&quot;&gt;&lt;b&gt;Message&lt;/b&gt;&lt;/p&gt;&lt;hr size=&quot;1&quot;&gt;&lt;p style=&quot;margin: 0px ; margin-left: 4px&quot;&gt;+ Text: string&lt;br&gt;&lt;/p&gt;&lt;p style=&quot;margin: 0px ; margin-left: 4px&quot;&gt;+ Id: UserId&lt;/p&gt;&lt;hr size=&quot;1&quot;&gt;&lt;p style=&quot;margin: 0px ; margin-left: 4px&quot;&gt;&lt;br&gt;&lt;/p&gt;" style="verticalAlign=top;align=left;overflow=fill;fontSize=12;fontFamily=Helvetica;html=1;" parent="WIyWlLk6GJQsqaUBKTNV-1" vertex="1">
                    <mxGeometry x="760.5" y="209" width="132" height="77" as="geometry"/>
                </mxCell>
                <mxCell id="560" value="&lt;p style=&quot;margin: 0px ; margin-top: 4px ; text-align: center&quot;&gt;&lt;b&gt;UserSession&lt;/b&gt;&lt;/p&gt;&lt;hr size=&quot;1&quot;&gt;&lt;p style=&quot;margin: 0px ; margin-left: 4px&quot;&gt;+ UserData: UserData&lt;/p&gt;&lt;p style=&quot;margin: 0px ; margin-left: 4px&quot;&gt;+ Id: UserId&lt;/p&gt;&lt;p style=&quot;margin: 0px ; margin-left: 4px&quot;&gt;+ State: State&lt;/p&gt;&lt;hr size=&quot;1&quot;&gt;&lt;p style=&quot;margin: 0px ; margin-left: 4px&quot;&gt;+ ProcessMessage(string): string&lt;/p&gt;" style="verticalAlign=top;align=left;overflow=fill;fontSize=12;fontFamily=Helvetica;html=1;" parent="WIyWlLk6GJQsqaUBKTNV-1" vertex="1">
                    <mxGeometry x="732" y="503" width="189" height="112" as="geometry"/>
                </mxCell>
                <mxCell id="561" value="&lt;p style=&quot;margin: 0px ; margin-top: 4px ; text-align: center&quot;&gt;&lt;i&gt;&amp;lt;&amp;lt;Static&amp;gt;&amp;gt;&lt;/i&gt;&lt;br&gt;&lt;b&gt;SessionManager&lt;/b&gt;&lt;/p&gt;&lt;hr size=&quot;1&quot;&gt;&lt;p style=&quot;margin: 0px ; margin-left: 4px&quot;&gt;&lt;u&gt;- sessions: List&amp;lt;UserSession&amp;gt;&lt;/u&gt;&lt;br&gt;&lt;/p&gt;&lt;hr size=&quot;1&quot;&gt;&lt;p style=&quot;margin: 0px ; margin-left: 4px&quot;&gt;&lt;u&gt;+ NewUser(UserId, UserData, State): void&lt;/u&gt;&lt;/p&gt;&lt;p style=&quot;margin: 0px ; margin-left: 4px&quot;&gt;&lt;u&gt;+ GetById(UserId): UserSession?&lt;/u&gt;&lt;/p&gt;" style="verticalAlign=top;align=left;overflow=fill;fontSize=12;fontFamily=Helvetica;html=1;" parent="WIyWlLk6GJQsqaUBKTNV-1" vertex="1">
                    <mxGeometry x="709" y="744.5" width="235" height="109" as="geometry"/>
                </mxCell>
                <mxCell id="562" value="&lt;p style=&quot;margin: 0px ; margin-top: 4px ; text-align: center&quot;&gt;&lt;i&gt;&amp;lt;&amp;lt;Abstract&amp;gt;&amp;gt;&lt;/i&gt;&lt;br&gt;&lt;b&gt;Invitation&lt;/b&gt;&lt;/p&gt;&lt;hr size=&quot;1&quot;&gt;&lt;p style=&quot;margin: 0px ; margin-left: 4px&quot;&gt;+ Code: string&lt;br&gt;&lt;/p&gt;&lt;hr size=&quot;1&quot;&gt;&lt;p style=&quot;margin: 0px ; margin-left: 4px&quot;&gt;+ Validate(UserId): string&lt;/p&gt;" style="verticalAlign=top;align=left;overflow=fill;fontSize=12;fontFamily=Helvetica;html=1;" parent="WIyWlLk6GJQsqaUBKTNV-1" vertex="1">
                    <mxGeometry x="836" y="881" width="145" height="102" as="geometry"/>
                </mxCell>
                <mxCell id="563" value="&lt;p style=&quot;margin: 0px ; margin-top: 4px ; text-align: center&quot;&gt;&lt;i&gt;&amp;lt;&amp;lt;Static&amp;gt;&amp;gt;&lt;/i&gt;&lt;br&gt;&lt;b&gt;MessageManager&lt;/b&gt;&lt;/p&gt;&lt;hr size=&quot;1&quot;&gt;&lt;p style=&quot;margin: 0px ; margin-left: 4px&quot;&gt;&lt;br&gt;&lt;/p&gt;&lt;hr size=&quot;1&quot;&gt;&lt;p style=&quot;margin: 0px ; margin-left: 4px&quot;&gt;&lt;u&gt;+ ProcessMessage(Message): void&lt;/u&gt;&lt;/p&gt;" style="verticalAlign=top;align=left;overflow=fill;fontSize=12;fontFamily=Helvetica;html=1;" parent="WIyWlLk6GJQsqaUBKTNV-1" vertex="1">
                    <mxGeometry x="1172.5" y="508" width="200" height="102" as="geometry"/>
                </mxCell>
                <mxCell id="564" value="Extends" style="endArrow=block;endSize=16;endFill=0;html=1;" parent="WIyWlLk6GJQsqaUBKTNV-1" source="549" target="432" edge="1">
                    <mxGeometry width="160" relative="1" as="geometry">
                        <mxPoint x="89" y="-2274" as="sourcePoint"/>
                        <mxPoint x="108" y="-2069" as="targetPoint"/>
                    </mxGeometry>
                </mxCell>
                <mxCell id="565" value="&lt;p style=&quot;margin: 0px ; margin-top: 4px ; text-align: center&quot;&gt;&lt;i&gt;&amp;lt;&amp;lt;Static&amp;gt;&amp;gt;&lt;/i&gt;&lt;br&gt;&lt;b&gt;InvitationManager&lt;/b&gt;&lt;/p&gt;&lt;hr size=&quot;1&quot;&gt;&lt;p style=&quot;margin: 0px ; margin-left: 4px&quot;&gt;&lt;u&gt;- invitations: List&amp;lt;Invitation&amp;gt;&lt;/u&gt;&lt;br&gt;&lt;/p&gt;&lt;hr size=&quot;1&quot;&gt;&lt;p style=&quot;margin: 0px ; margin-left: 4px&quot;&gt;&lt;u&gt;+ CreateInvitation(string, Func&amp;lt;string, Invitation&amp;gt;): void&lt;/u&gt;&lt;/p&gt;&lt;p style=&quot;margin: 0px ; margin-left: 4px&quot;&gt;&lt;u&gt;+ ValidateInvitation(string, UserId): bool&lt;/u&gt;&lt;/p&gt;" style="verticalAlign=top;align=left;overflow=fill;fontSize=12;fontFamily=Helvetica;html=1;" parent="WIyWlLk6GJQsqaUBKTNV-1" vertex="1">
                    <mxGeometry x="1122" y="877.5" width="301" height="109" as="geometry"/>
                </mxCell>
                <mxCell id="566" value="&lt;p style=&quot;margin: 0px ; margin-top: 4px ; text-align: center&quot;&gt;&lt;b&gt;UserId&lt;/b&gt;&lt;/p&gt;" style="verticalAlign=middle;align=center;overflow=fill;fontSize=12;fontFamily=Helvetica;html=1;labelPosition=center;verticalLabelPosition=middle;" parent="WIyWlLk6GJQsqaUBKTNV-1" vertex="1">
                    <mxGeometry x="1230" y="1092" width="85" height="24" as="geometry"/>
                </mxCell>
                <mxCell id="567" value="&lt;p style=&quot;margin: 0px ; margin-top: 4px ; text-align: center&quot;&gt;&lt;b&gt;Message&lt;/b&gt;&lt;/p&gt;" style="verticalAlign=middle;align=center;overflow=fill;fontSize=12;fontFamily=Helvetica;html=1;labelPosition=center;verticalLabelPosition=middle;" parent="WIyWlLk6GJQsqaUBKTNV-1" vertex="1">
                    <mxGeometry x="1908" y="9" width="85" height="24" as="geometry"/>
                </mxCell>
                <mxCell id="568" value="&lt;p style=&quot;margin: 0px ; margin-top: 4px ; text-align: center&quot;&gt;&lt;i&gt;&amp;lt;&amp;lt;Singleton&amp;gt;&amp;gt;&lt;/i&gt;&lt;br&gt;&lt;b&gt;GenericMessagingPlatform&lt;/b&gt;&lt;/p&gt;&lt;hr size=&quot;1&quot;&gt;&lt;p style=&quot;margin: 0px ; margin-left: 4px&quot;&gt;&lt;br&gt;&lt;/p&gt;&lt;hr size=&quot;1&quot;&gt;&lt;p style=&quot;margin: 0px ; margin-left: 4px&quot;&gt;&lt;br&gt;&lt;/p&gt;" style="verticalAlign=top;align=left;overflow=fill;fontSize=12;fontFamily=Helvetica;html=1;" parent="WIyWlLk6GJQsqaUBKTNV-1" vertex="1">
                    <mxGeometry x="1866" y="520" width="169" height="78" as="geometry"/>
                </mxCell>
                <mxCell id="569" value="&lt;p style=&quot;margin: 0px ; margin-top: 4px ; text-align: center&quot;&gt;&lt;b&gt;TelegramPlatform...&lt;/b&gt;&lt;/p&gt;" style="verticalAlign=middle;align=center;overflow=fill;fontSize=12;fontFamily=Helvetica;html=1;labelPosition=center;verticalLabelPosition=middle;" parent="WIyWlLk6GJQsqaUBKTNV-1" vertex="1">
                    <mxGeometry x="2922" y="356" width="123" height="24" as="geometry"/>
                </mxCell>
                <mxCell id="570" value="&lt;p style=&quot;margin: 0px ; margin-top: 4px ; text-align: center&quot;&gt;&lt;b&gt;MoneyQuantityUtils&lt;/b&gt;&lt;/p&gt;&lt;hr size=&quot;1&quot;&gt;&lt;p style=&quot;margin: 0px ; margin-left: 4px&quot;&gt;&lt;br&gt;&lt;/p&gt;&lt;hr size=&quot;1&quot;&gt;&lt;p style=&quot;margin: 0px ; margin-left: 4px&quot;&gt;&lt;u&gt;+ Calculate(Amount, Price): MoneyQuantity?&lt;/u&gt;&lt;/p&gt;" style="verticalAlign=top;align=left;overflow=fill;fontSize=12;fontFamily=Helvetica;html=1;" parent="WIyWlLk6GJQsqaUBKTNV-1" vertex="1">
                    <mxGeometry x="-2759" y="-647" width="251" height="92" as="geometry"/>
                </mxCell>
                <mxCell id="571" value="" style="endArrow=open;endSize=12;dashed=1;html=1;" parent="WIyWlLk6GJQsqaUBKTNV-1" source="524" target="570" edge="1">
                    <mxGeometry width="160" relative="1" as="geometry">
                        <mxPoint x="-2232" y="-727.9999999999995" as="sourcePoint"/>
                        <mxPoint x="-2498" y="-727.9999999999995" as="targetPoint"/>
                    </mxGeometry>
                </mxCell>
                <mxCell id="572" value="" style="endArrow=open;endSize=12;dashed=1;html=1;rounded=0;" parent="WIyWlLk6GJQsqaUBKTNV-1" source="538" target="539" edge="1">
                    <mxGeometry x="0.0045" y="105" width="160" relative="1" as="geometry">
                        <mxPoint x="-2488" y="-1111.5" as="sourcePoint"/>
                        <mxPoint x="-2488" y="-1025" as="targetPoint"/>
                        <mxPoint as="offset"/>
                    </mxGeometry>
                </mxCell>
            </root>
        </mxGraphModel>
    </diagram>
</mxfile>